# xmcd
#
# Track frame offsets:
#	150
#	19879
#	33568
#	55084
#	70231
#	83138
#	95943
#	113303
#	126132
#	142815
#	157738
#	173147
#	186368
#
# Disc length: 2608 seconds
#
# Revision: 1
# Processed by: cddbd v1.5.2PL0 Copyright (c) Steve Scherf et al.
# Submitted via: audiograbber 1.83.01
#
DISCID=a50a2e0d
DTITLE=Alabama - Songs Of Inspiration II
DYEAR=2008
DGENRE=Country
TTITLE0=I Am A Pilgram
TTITLE1=Church In The Wildwood
TTITLE2=Will The Circle Be Unbroken
TTITLE3=If I Could Hear My Mother Pray Again
TTITLE4=Suppertime
TTITLE5=Down By The Riverside
TTITLE6=Precious Memories
TTITLE7=Lonesome Valley
TTITLE8=The Refrain Of John Dillon James
TTITLE9=Love Lifted Me
TTITLE10=When It Comes My Time
TTITLE11=One Life
TTITLE12=The Star Bangled Banner
EXTD=
EXTT0=
EXTT1=
EXTT2=
EXTT3=
EXTT4=
EXTT5=
EXTT6=
EXTT7=
EXTT8=
EXTT9=
EXTT10=
EXTT11=
EXTT12=
PLAYORDER=
